<svg xmlns="http://www.w3.org/2000/svg" width="64" height="64" viewBox="0 0 64 64" fill="none">
<defs>
<linearGradient id="sav-body" x1="0" y1="0" x2="0" y2="1"><stop offset="0" stop-color="#fde047"/><stop offset="0.5" stop-color="#facc15"/><stop offset="1" stop-color="#eab308"/></linearGradient>
<linearGradient id="sav-shade" x1="0" y1="0" x2="0" y2="1"><stop offset="0" stop-color="#eab308"/><stop offset="1" stop-color="#ca8a04"/></linearGradient>
<linearGradient id="sav-highlight" x1="0" y1="0" x2="0" y2="1"><stop offset="0" stop-color="#fef08a"/><stop offset="1" stop-color="#fef9c3"/></linearGradient>
<linearGradient id="grass" x1="0" y1="0" x2="0" y2="1"><stop offset="0" stop-color="#22c55e"/><stop offset="1" stop-color="#16a34a"/></linearGradient>
<filter id="drop-shadow"><feDropShadow dx="0" dy="3" stdDeviation="4" flood-color="#000" flood-opacity="0.2"/></filter>
</defs>
<ellipse cx="32" cy="52" rx="26" ry="18" fill="#fde047" filter="url(#drop-shadow)"/>
<path d="M10 52 Q32 38 54 52 Q54 60 32 60 Q10 60 10 52" fill="url(#sav-body)" filter="url(#drop-shadow)"/>
<path d="M14 46 Q32 34 50 46 Q50 58 32 62 Q14 58 14 46" fill="#eab308" opacity="0.5"/>
<path d="M32 8 L32 14" stroke="#ca8a04" stroke-width="2" stroke-linecap="round"/>
<path d="M26 12 Q32 6 38 12" stroke="#fbbf24" stroke-width="2" stroke-linecap="round" fill="none" opacity="0.8"/>
<ellipse cx="32" cy="56" rx="20" ry="8" fill="#22c55e" opacity="0.6"/>
<ellipse cx="32" cy="54" rx="18" ry="6" fill="#16a34a" opacity="0.8"/>
</svg>