<svg xmlns="http://www.w3.org/2000/svg" width="64" height="64" viewBox="0 0 64 64" fill="none">
<defs>
<linearGradient id="gem-body" x1="0" y1="0" x2="0" y2="1"><stop offset="0" stop-color="#22c55e"/><stop offset="0.5" stop-color="#16a34a"/><stop offset="1" stop-color="#15803d"/></linearGradient>
<linearGradient id="gem-shade" x1="0" y1="0" x2="0" y2="1"><stop offset="0" stop-color="#15803d"/><stop offset="1" stop-color="#166534"/></linearGradient>
<linearGradient id="gem-highlight" x1="0" y1="0" x2="0" y2="1"><stop offset="0" stop-color="#86efac"/><stop offset="1" stop-color="#bbf7d0"/></linearGradient>
<filter id="drop-shadow"><feDropShadow dx="0" dy="3" stdDeviation="4" flood-color="#000" flood-opacity="0.2"/></filter>
</defs>
<polygon points="32 8 48 24 48 40 32 56 16 40 16 24" fill="url(#gem-body)" filter="url(#drop-shadow)"/>
<polygon points="32 10 46 24 46 38 32 54 18 38 18 24" fill="url(#gem-highlight)" opacity="0.6"/>
<polygon points="32 12 44 24 44 36 32 52 20 36 20 24" fill="#15803d" opacity="0.4"/>
<path d="M32 10 L32 16" stroke="#16a34a" stroke-width="2" stroke-linecap="round"/>
<path d="M28 14 Q32 8 36 14" stroke="#4ade80" stroke-width="1.5" stroke-linecap="round" fill="none" opacity="0.7"/>
</svg>